<mxfile host="app.diagrams.net" agent="Mozilla/5.0 (Windows NT 10.0; Win64; x64) AppleWebKit/537.36 (KHTML, like Gecko) Chrome/129.0.0.0 Safari/537.36" version="24.7.16">
  <diagram name="Page-1" id="BTV8Fuy5DrhqN2SJM399">
    <mxGraphModel dx="2266" dy="818" grid="1" gridSize="10" guides="1" tooltips="1" connect="1" arrows="1" fold="1" page="1" pageScale="1" pageWidth="1400" pageHeight="850" math="0" shadow="0">
      <root>
        <mxCell id="0" />
        <mxCell id="1" parent="0" />
        <mxCell id="6bQv6QJurrnaL64MEYEU-1" value="User" style="rounded=0;whiteSpace=wrap;html=1;" vertex="1" parent="1">
          <mxGeometry x="480" y="265" width="120" height="60" as="geometry" />
        </mxCell>
        <mxCell id="6bQv6QJurrnaL64MEYEU-3" value="Past Workout" style="rounded=0;whiteSpace=wrap;html=1;" vertex="1" parent="1">
          <mxGeometry x="480" y="590" width="120" height="60" as="geometry" />
        </mxCell>
        <mxCell id="6bQv6QJurrnaL64MEYEU-4" value="Workout" style="rounded=0;whiteSpace=wrap;html=1;" vertex="1" parent="1">
          <mxGeometry x="930" y="430" width="120" height="60" as="geometry" />
        </mxCell>
        <mxCell id="6bQv6QJurrnaL64MEYEU-5" value="ID" style="ellipse;whiteSpace=wrap;html=1;aspect=fixed;fontSize=10;fontStyle=4" vertex="1" parent="1">
          <mxGeometry x="380" y="145" width="50" height="50" as="geometry" />
        </mxCell>
        <mxCell id="6bQv6QJurrnaL64MEYEU-7" value="Height" style="ellipse;whiteSpace=wrap;html=1;aspect=fixed;fontSize=10;fontStyle=0" vertex="1" parent="1">
          <mxGeometry x="190" y="180" width="50" height="50" as="geometry" />
        </mxCell>
        <mxCell id="6bQv6QJurrnaL64MEYEU-8" value="Gender" style="ellipse;whiteSpace=wrap;html=1;aspect=fixed;fontSize=10;fontStyle=0" vertex="1" parent="1">
          <mxGeometry x="190" y="60" width="50" height="50" as="geometry" />
        </mxCell>
        <mxCell id="6bQv6QJurrnaL64MEYEU-9" value="Date of Birth" style="ellipse;whiteSpace=wrap;html=1;aspect=fixed;fontSize=10;fontStyle=0" vertex="1" parent="1">
          <mxGeometry x="557.5" y="145" width="50" height="50" as="geometry" />
        </mxCell>
        <mxCell id="6bQv6QJurrnaL64MEYEU-10" value="Last Name" style="ellipse;whiteSpace=wrap;html=1;aspect=fixed;fontSize=10;fontStyle=0" vertex="1" parent="1">
          <mxGeometry x="675" y="145" width="50" height="50" as="geometry" />
        </mxCell>
        <mxCell id="6bQv6QJurrnaL64MEYEU-11" value="First Name" style="ellipse;whiteSpace=wrap;html=1;aspect=fixed;fontSize=10;fontStyle=0" vertex="1" parent="1">
          <mxGeometry x="615" y="145" width="50" height="50" as="geometry" />
        </mxCell>
        <mxCell id="6bQv6QJurrnaL64MEYEU-12" value="Password" style="ellipse;whiteSpace=wrap;html=1;aspect=fixed;fontSize=10;fontStyle=0" vertex="1" parent="1">
          <mxGeometry x="500" y="145" width="50" height="50" as="geometry" />
        </mxCell>
        <mxCell id="6bQv6QJurrnaL64MEYEU-13" value="Email" style="ellipse;whiteSpace=wrap;html=1;aspect=fixed;fontSize=10;fontStyle=0" vertex="1" parent="1">
          <mxGeometry x="440" y="145" width="50" height="50" as="geometry" />
        </mxCell>
        <mxCell id="6bQv6QJurrnaL64MEYEU-16" value="Other Information" style="ellipse;whiteSpace=wrap;html=1;aspect=fixed;fontSize=9;fontStyle=0" vertex="1" parent="1">
          <mxGeometry x="190" y="480" width="50" height="50" as="geometry" />
        </mxCell>
        <mxCell id="6bQv6QJurrnaL64MEYEU-17" value="Past Injuries" style="ellipse;whiteSpace=wrap;html=1;aspect=fixed;fontSize=10;fontStyle=0" vertex="1" parent="1">
          <mxGeometry x="190" y="240" width="50" height="50" as="geometry" />
        </mxCell>
        <mxCell id="6bQv6QJurrnaL64MEYEU-18" value="Equipment&lt;div style=&quot;font-size: 9px;&quot;&gt;Access&lt;/div&gt;" style="ellipse;whiteSpace=wrap;html=1;aspect=fixed;fontSize=9;fontStyle=0" vertex="1" parent="1">
          <mxGeometry x="190" y="300" width="50" height="50" as="geometry" />
        </mxCell>
        <mxCell id="6bQv6QJurrnaL64MEYEU-19" value="Fitness Goal" style="ellipse;whiteSpace=wrap;html=1;aspect=fixed;fontSize=10;fontStyle=0" vertex="1" parent="1">
          <mxGeometry x="190" y="360" width="50" height="50" as="geometry" />
        </mxCell>
        <mxCell id="6bQv6QJurrnaL64MEYEU-20" value="Favorite Workout Type" style="ellipse;whiteSpace=wrap;html=1;aspect=fixed;fontSize=9;fontStyle=0" vertex="1" parent="1">
          <mxGeometry x="190" y="420" width="50" height="50" as="geometry" />
        </mxCell>
        <mxCell id="6bQv6QJurrnaL64MEYEU-21" value="Weight" style="ellipse;whiteSpace=wrap;html=1;aspect=fixed;fontSize=10;fontStyle=0" vertex="1" parent="1">
          <mxGeometry x="190" y="120" width="50" height="50" as="geometry" />
        </mxCell>
        <mxCell id="6bQv6QJurrnaL64MEYEU-22" value="Date" style="ellipse;whiteSpace=wrap;html=1;aspect=fixed;fontSize=10;fontStyle=0" vertex="1" parent="1">
          <mxGeometry x="572.5" y="710" width="50" height="50" as="geometry" />
        </mxCell>
        <mxCell id="6bQv6QJurrnaL64MEYEU-24" value="Feedback" style="ellipse;whiteSpace=wrap;html=1;aspect=fixed;fontSize=10;fontStyle=0" vertex="1" parent="1">
          <mxGeometry x="515" y="710" width="50" height="50" as="geometry" />
        </mxCell>
        <mxCell id="6bQv6QJurrnaL64MEYEU-25" value="Star Rating" style="ellipse;whiteSpace=wrap;html=1;aspect=fixed;fontSize=10;fontStyle=0" vertex="1" parent="1">
          <mxGeometry x="457.5" y="710" width="50" height="50" as="geometry" />
        </mxCell>
        <mxCell id="6bQv6QJurrnaL64MEYEU-26" value="Confirmed" style="ellipse;whiteSpace=wrap;html=1;aspect=fixed;fontSize=10;fontStyle=0" vertex="1" parent="1">
          <mxGeometry x="1110" y="710" width="50" height="50" as="geometry" />
        </mxCell>
        <mxCell id="6bQv6QJurrnaL64MEYEU-27" value="Suggested Change" style="ellipse;whiteSpace=wrap;html=1;aspect=fixed;fontSize=9;fontStyle=0" vertex="1" parent="1">
          <mxGeometry x="1110" y="650" width="50" height="50" as="geometry" />
        </mxCell>
        <mxCell id="6bQv6QJurrnaL64MEYEU-28" value="Other Information" style="ellipse;whiteSpace=wrap;html=1;aspect=fixed;fontSize=9;fontStyle=0" vertex="1" parent="1">
          <mxGeometry x="1110" y="590" width="50" height="50" as="geometry" />
        </mxCell>
        <mxCell id="6bQv6QJurrnaL64MEYEU-29" value="Exercise to Avoid" style="ellipse;whiteSpace=wrap;html=1;aspect=fixed;fontSize=10;fontStyle=0" vertex="1" parent="1">
          <mxGeometry x="1110" y="530" width="50" height="50" as="geometry" />
        </mxCell>
        <mxCell id="6bQv6QJurrnaL64MEYEU-30" value="Exercise to Include" style="ellipse;whiteSpace=wrap;html=1;aspect=fixed;fontSize=10;fontStyle=0" vertex="1" parent="1">
          <mxGeometry x="1110" y="470" width="50" height="50" as="geometry" />
        </mxCell>
        <mxCell id="6bQv6QJurrnaL64MEYEU-31" value="Muscles Targeted" style="ellipse;whiteSpace=wrap;html=1;aspect=fixed;fontSize=10;fontStyle=0" vertex="1" parent="1">
          <mxGeometry x="1110" y="410" width="50" height="50" as="geometry" />
        </mxCell>
        <mxCell id="6bQv6QJurrnaL64MEYEU-32" value="Workout Type" style="ellipse;whiteSpace=wrap;html=1;aspect=fixed;fontSize=10;fontStyle=0" vertex="1" parent="1">
          <mxGeometry x="1110" y="350" width="50" height="50" as="geometry" />
        </mxCell>
        <mxCell id="6bQv6QJurrnaL64MEYEU-33" value="Difficulty" style="ellipse;whiteSpace=wrap;html=1;aspect=fixed;fontSize=10;fontStyle=0" vertex="1" parent="1">
          <mxGeometry x="1110" y="290" width="50" height="50" as="geometry" />
        </mxCell>
        <mxCell id="6bQv6QJurrnaL64MEYEU-34" value="Duration" style="ellipse;whiteSpace=wrap;html=1;aspect=fixed;fontSize=10;fontStyle=0" vertex="1" parent="1">
          <mxGeometry x="1110" y="230" width="50" height="50" as="geometry" />
        </mxCell>
        <mxCell id="6bQv6QJurrnaL64MEYEU-35" value="ID" style="ellipse;whiteSpace=wrap;html=1;aspect=fixed;fontSize=10;fontStyle=4" vertex="1" parent="1">
          <mxGeometry x="1110" y="170" width="50" height="50" as="geometry" />
        </mxCell>
        <mxCell id="6bQv6QJurrnaL64MEYEU-37" value="" style="endArrow=block;html=1;rounded=0;entryX=0.5;entryY=1;entryDx=0;entryDy=0;exitX=1;exitY=0.5;exitDx=0;exitDy=0;edgeStyle=orthogonalEdgeStyle;curved=1;endFill=0;endSize=14;" edge="1" parent="1" source="6bQv6QJurrnaL64MEYEU-3" target="6bQv6QJurrnaL64MEYEU-4">
          <mxGeometry width="50" height="50" relative="1" as="geometry">
            <mxPoint x="870" y="585" as="sourcePoint" />
            <mxPoint x="920" y="535" as="targetPoint" />
          </mxGeometry>
        </mxCell>
        <mxCell id="6bQv6QJurrnaL64MEYEU-38" value="Creates" style="rhombus;whiteSpace=wrap;html=1;" vertex="1" parent="1">
          <mxGeometry x="725" y="330" width="80" height="80" as="geometry" />
        </mxCell>
        <mxCell id="6bQv6QJurrnaL64MEYEU-39" value="Completes" style="rhombus;whiteSpace=wrap;html=1;" vertex="1" parent="1">
          <mxGeometry x="500" y="420" width="80" height="80" as="geometry" />
        </mxCell>
        <mxCell id="6bQv6QJurrnaL64MEYEU-40" value="Health Profile" style="ellipse;whiteSpace=wrap;html=1;aspect=fixed;" vertex="1" parent="1">
          <mxGeometry x="270" y="260" width="70" height="70" as="geometry" />
        </mxCell>
        <mxCell id="6bQv6QJurrnaL64MEYEU-41" value="" style="endArrow=none;html=1;rounded=0;entryX=0;entryY=0.5;entryDx=0;entryDy=0;exitX=1;exitY=0.5;exitDx=0;exitDy=0;" edge="1" parent="1" source="6bQv6QJurrnaL64MEYEU-40" target="6bQv6QJurrnaL64MEYEU-1">
          <mxGeometry width="50" height="50" relative="1" as="geometry">
            <mxPoint x="480" y="325" as="sourcePoint" />
            <mxPoint x="530" y="275" as="targetPoint" />
          </mxGeometry>
        </mxCell>
        <mxCell id="6bQv6QJurrnaL64MEYEU-43" value="Age" style="ellipse;whiteSpace=wrap;html=1;aspect=fixed;fontSize=10;fontStyle=0;dashed=1;" vertex="1" parent="1">
          <mxGeometry x="557.5" y="75" width="50" height="50" as="geometry" />
        </mxCell>
        <mxCell id="6bQv6QJurrnaL64MEYEU-44" value="" style="endArrow=none;html=1;rounded=0;entryX=0;entryY=0.5;entryDx=0;entryDy=0;exitX=1;exitY=0.5;exitDx=0;exitDy=0;" edge="1" parent="1" source="6bQv6QJurrnaL64MEYEU-1" target="6bQv6QJurrnaL64MEYEU-38">
          <mxGeometry width="50" height="50" relative="1" as="geometry">
            <mxPoint x="870" y="485" as="sourcePoint" />
            <mxPoint x="920" y="435" as="targetPoint" />
          </mxGeometry>
        </mxCell>
        <mxCell id="6bQv6QJurrnaL64MEYEU-45" value="" style="endArrow=none;html=1;rounded=0;entryX=1;entryY=0.5;entryDx=0;entryDy=0;exitX=0;exitY=0.5;exitDx=0;exitDy=0;" edge="1" parent="1" source="6bQv6QJurrnaL64MEYEU-4" target="6bQv6QJurrnaL64MEYEU-38">
          <mxGeometry width="50" height="50" relative="1" as="geometry">
            <mxPoint x="870" y="485" as="sourcePoint" />
            <mxPoint x="920" y="435" as="targetPoint" />
          </mxGeometry>
        </mxCell>
        <mxCell id="6bQv6QJurrnaL64MEYEU-46" value="" style="endArrow=none;html=1;rounded=0;entryX=0.5;entryY=1;entryDx=0;entryDy=0;exitX=0.5;exitY=0;exitDx=0;exitDy=0;" edge="1" parent="1" source="6bQv6QJurrnaL64MEYEU-39" target="6bQv6QJurrnaL64MEYEU-1">
          <mxGeometry width="50" height="50" relative="1" as="geometry">
            <mxPoint x="870" y="485" as="sourcePoint" />
            <mxPoint x="920" y="435" as="targetPoint" />
          </mxGeometry>
        </mxCell>
        <mxCell id="6bQv6QJurrnaL64MEYEU-47" value="" style="endArrow=none;html=1;rounded=0;exitX=0.5;exitY=1;exitDx=0;exitDy=0;entryX=0.5;entryY=0;entryDx=0;entryDy=0;" edge="1" parent="1" source="6bQv6QJurrnaL64MEYEU-39" target="6bQv6QJurrnaL64MEYEU-3">
          <mxGeometry width="50" height="50" relative="1" as="geometry">
            <mxPoint x="870" y="485" as="sourcePoint" />
            <mxPoint x="920" y="435" as="targetPoint" />
          </mxGeometry>
        </mxCell>
        <mxCell id="6bQv6QJurrnaL64MEYEU-48" value="" style="endArrow=none;html=1;rounded=0;entryX=0;entryY=0.5;entryDx=0;entryDy=0;exitX=1;exitY=0.5;exitDx=0;exitDy=0;" edge="1" parent="1" source="6bQv6QJurrnaL64MEYEU-8" target="6bQv6QJurrnaL64MEYEU-40">
          <mxGeometry width="50" height="50" relative="1" as="geometry">
            <mxPoint x="290" y="240" as="sourcePoint" />
            <mxPoint x="340" y="190" as="targetPoint" />
          </mxGeometry>
        </mxCell>
        <mxCell id="6bQv6QJurrnaL64MEYEU-49" value="" style="endArrow=none;html=1;rounded=0;exitX=1;exitY=0.5;exitDx=0;exitDy=0;" edge="1" parent="1" source="6bQv6QJurrnaL64MEYEU-21">
          <mxGeometry width="50" height="50" relative="1" as="geometry">
            <mxPoint x="40" y="630" as="sourcePoint" />
            <mxPoint x="270" y="290" as="targetPoint" />
          </mxGeometry>
        </mxCell>
        <mxCell id="6bQv6QJurrnaL64MEYEU-50" value="" style="endArrow=none;html=1;rounded=0;exitX=1;exitY=0.5;exitDx=0;exitDy=0;" edge="1" parent="1" source="6bQv6QJurrnaL64MEYEU-7">
          <mxGeometry width="50" height="50" relative="1" as="geometry">
            <mxPoint x="50" y="640" as="sourcePoint" />
            <mxPoint x="270" y="290" as="targetPoint" />
          </mxGeometry>
        </mxCell>
        <mxCell id="6bQv6QJurrnaL64MEYEU-51" value="" style="endArrow=none;html=1;rounded=0;entryX=0;entryY=0.5;entryDx=0;entryDy=0;exitX=1;exitY=0.5;exitDx=0;exitDy=0;" edge="1" parent="1" source="6bQv6QJurrnaL64MEYEU-17" target="6bQv6QJurrnaL64MEYEU-40">
          <mxGeometry width="50" height="50" relative="1" as="geometry">
            <mxPoint x="60" y="650" as="sourcePoint" />
            <mxPoint x="110" y="600" as="targetPoint" />
          </mxGeometry>
        </mxCell>
        <mxCell id="6bQv6QJurrnaL64MEYEU-52" value="" style="endArrow=none;html=1;rounded=0;entryX=0;entryY=0.5;entryDx=0;entryDy=0;exitX=1;exitY=0.5;exitDx=0;exitDy=0;" edge="1" parent="1" source="6bQv6QJurrnaL64MEYEU-18" target="6bQv6QJurrnaL64MEYEU-40">
          <mxGeometry width="50" height="50" relative="1" as="geometry">
            <mxPoint x="70" y="660" as="sourcePoint" />
            <mxPoint x="120" y="610" as="targetPoint" />
          </mxGeometry>
        </mxCell>
        <mxCell id="6bQv6QJurrnaL64MEYEU-53" value="" style="endArrow=none;html=1;rounded=0;entryX=0;entryY=0.5;entryDx=0;entryDy=0;exitX=1;exitY=0.5;exitDx=0;exitDy=0;" edge="1" parent="1" source="6bQv6QJurrnaL64MEYEU-19" target="6bQv6QJurrnaL64MEYEU-40">
          <mxGeometry width="50" height="50" relative="1" as="geometry">
            <mxPoint x="80" y="670" as="sourcePoint" />
            <mxPoint x="110" y="610" as="targetPoint" />
          </mxGeometry>
        </mxCell>
        <mxCell id="6bQv6QJurrnaL64MEYEU-54" value="" style="endArrow=none;html=1;rounded=0;entryX=0;entryY=0.5;entryDx=0;entryDy=0;exitX=1;exitY=0.5;exitDx=0;exitDy=0;" edge="1" parent="1" source="6bQv6QJurrnaL64MEYEU-20" target="6bQv6QJurrnaL64MEYEU-40">
          <mxGeometry width="50" height="50" relative="1" as="geometry">
            <mxPoint x="90" y="680" as="sourcePoint" />
            <mxPoint x="140" y="630" as="targetPoint" />
          </mxGeometry>
        </mxCell>
        <mxCell id="6bQv6QJurrnaL64MEYEU-55" value="" style="endArrow=none;html=1;rounded=0;entryX=0;entryY=0.5;entryDx=0;entryDy=0;exitX=1;exitY=0.5;exitDx=0;exitDy=0;" edge="1" parent="1" source="6bQv6QJurrnaL64MEYEU-16" target="6bQv6QJurrnaL64MEYEU-40">
          <mxGeometry width="50" height="50" relative="1" as="geometry">
            <mxPoint x="100" y="690" as="sourcePoint" />
            <mxPoint x="150" y="640" as="targetPoint" />
          </mxGeometry>
        </mxCell>
        <mxCell id="6bQv6QJurrnaL64MEYEU-56" value="" style="endArrow=none;html=1;rounded=0;entryX=0.5;entryY=1;entryDx=0;entryDy=0;exitX=0.5;exitY=0;exitDx=0;exitDy=0;" edge="1" parent="1" source="6bQv6QJurrnaL64MEYEU-1" target="6bQv6QJurrnaL64MEYEU-5">
          <mxGeometry width="50" height="50" relative="1" as="geometry">
            <mxPoint x="-20" y="705" as="sourcePoint" />
            <mxPoint x="30" y="655" as="targetPoint" />
          </mxGeometry>
        </mxCell>
        <mxCell id="6bQv6QJurrnaL64MEYEU-57" value="" style="endArrow=none;html=1;rounded=0;entryX=0.5;entryY=1;entryDx=0;entryDy=0;exitX=0.5;exitY=0;exitDx=0;exitDy=0;" edge="1" parent="1" source="6bQv6QJurrnaL64MEYEU-1" target="6bQv6QJurrnaL64MEYEU-13">
          <mxGeometry width="50" height="50" relative="1" as="geometry">
            <mxPoint x="-10" y="715" as="sourcePoint" />
            <mxPoint x="40" y="665" as="targetPoint" />
          </mxGeometry>
        </mxCell>
        <mxCell id="6bQv6QJurrnaL64MEYEU-58" value="" style="endArrow=none;html=1;rounded=0;entryX=0.5;entryY=1;entryDx=0;entryDy=0;exitX=0.5;exitY=0;exitDx=0;exitDy=0;" edge="1" parent="1" source="6bQv6QJurrnaL64MEYEU-1" target="6bQv6QJurrnaL64MEYEU-12">
          <mxGeometry width="50" height="50" relative="1" as="geometry">
            <mxPoint y="725" as="sourcePoint" />
            <mxPoint x="50" y="675" as="targetPoint" />
          </mxGeometry>
        </mxCell>
        <mxCell id="6bQv6QJurrnaL64MEYEU-59" value="" style="endArrow=none;html=1;rounded=0;entryX=0.5;entryY=1;entryDx=0;entryDy=0;exitX=0.5;exitY=0;exitDx=0;exitDy=0;" edge="1" parent="1" source="6bQv6QJurrnaL64MEYEU-1" target="6bQv6QJurrnaL64MEYEU-9">
          <mxGeometry width="50" height="50" relative="1" as="geometry">
            <mxPoint x="10" y="735" as="sourcePoint" />
            <mxPoint x="60" y="685" as="targetPoint" />
          </mxGeometry>
        </mxCell>
        <mxCell id="6bQv6QJurrnaL64MEYEU-60" value="" style="endArrow=none;html=1;rounded=0;entryX=0.5;entryY=1;entryDx=0;entryDy=0;exitX=0.5;exitY=0;exitDx=0;exitDy=0;" edge="1" parent="1" source="6bQv6QJurrnaL64MEYEU-1" target="6bQv6QJurrnaL64MEYEU-11">
          <mxGeometry width="50" height="50" relative="1" as="geometry">
            <mxPoint x="20" y="745" as="sourcePoint" />
            <mxPoint x="70" y="695" as="targetPoint" />
          </mxGeometry>
        </mxCell>
        <mxCell id="6bQv6QJurrnaL64MEYEU-61" value="" style="endArrow=none;html=1;rounded=0;entryX=0;entryY=0.5;entryDx=0;entryDy=0;exitX=1;exitY=0.5;exitDx=0;exitDy=0;" edge="1" parent="1" source="6bQv6QJurrnaL64MEYEU-4" target="6bQv6QJurrnaL64MEYEU-34">
          <mxGeometry width="50" height="50" relative="1" as="geometry">
            <mxPoint x="780" y="480" as="sourcePoint" />
            <mxPoint x="830" y="430" as="targetPoint" />
          </mxGeometry>
        </mxCell>
        <mxCell id="6bQv6QJurrnaL64MEYEU-62" value="" style="endArrow=none;html=1;rounded=0;entryX=0;entryY=0.5;entryDx=0;entryDy=0;exitX=1;exitY=0.5;exitDx=0;exitDy=0;" edge="1" parent="1" source="6bQv6QJurrnaL64MEYEU-4" target="6bQv6QJurrnaL64MEYEU-35">
          <mxGeometry width="50" height="50" relative="1" as="geometry">
            <mxPoint x="780" y="480" as="sourcePoint" />
            <mxPoint x="830" y="430" as="targetPoint" />
          </mxGeometry>
        </mxCell>
        <mxCell id="6bQv6QJurrnaL64MEYEU-63" value="" style="endArrow=none;html=1;rounded=0;entryX=0.5;entryY=1;entryDx=0;entryDy=0;exitX=0.5;exitY=0;exitDx=0;exitDy=0;" edge="1" parent="1" source="6bQv6QJurrnaL64MEYEU-9" target="6bQv6QJurrnaL64MEYEU-43">
          <mxGeometry width="50" height="50" relative="1" as="geometry">
            <mxPoint x="870" y="485" as="sourcePoint" />
            <mxPoint x="920" y="435" as="targetPoint" />
          </mxGeometry>
        </mxCell>
        <mxCell id="6bQv6QJurrnaL64MEYEU-64" value="" style="endArrow=none;html=1;rounded=0;entryX=0.5;entryY=1;entryDx=0;entryDy=0;exitX=0.5;exitY=0;exitDx=0;exitDy=0;" edge="1" parent="1" source="6bQv6QJurrnaL64MEYEU-1" target="6bQv6QJurrnaL64MEYEU-10">
          <mxGeometry width="50" height="50" relative="1" as="geometry">
            <mxPoint x="720" y="520" as="sourcePoint" />
            <mxPoint x="770" y="470" as="targetPoint" />
          </mxGeometry>
        </mxCell>
        <mxCell id="6bQv6QJurrnaL64MEYEU-66" value="" style="endArrow=none;html=1;rounded=0;entryX=0;entryY=0.5;entryDx=0;entryDy=0;exitX=1;exitY=0.5;exitDx=0;exitDy=0;" edge="1" parent="1" source="6bQv6QJurrnaL64MEYEU-4" target="6bQv6QJurrnaL64MEYEU-26">
          <mxGeometry width="50" height="50" relative="1" as="geometry">
            <mxPoint x="780" y="480" as="sourcePoint" />
            <mxPoint x="830" y="430" as="targetPoint" />
          </mxGeometry>
        </mxCell>
        <mxCell id="6bQv6QJurrnaL64MEYEU-67" value="" style="endArrow=none;html=1;rounded=0;entryX=0;entryY=0.5;entryDx=0;entryDy=0;exitX=1;exitY=0.5;exitDx=0;exitDy=0;" edge="1" parent="1" source="6bQv6QJurrnaL64MEYEU-4" target="6bQv6QJurrnaL64MEYEU-27">
          <mxGeometry width="50" height="50" relative="1" as="geometry">
            <mxPoint x="790" y="490" as="sourcePoint" />
            <mxPoint x="840" y="440" as="targetPoint" />
          </mxGeometry>
        </mxCell>
        <mxCell id="6bQv6QJurrnaL64MEYEU-68" value="" style="endArrow=none;html=1;rounded=0;entryX=0;entryY=0.5;entryDx=0;entryDy=0;exitX=1;exitY=0.5;exitDx=0;exitDy=0;" edge="1" parent="1" source="6bQv6QJurrnaL64MEYEU-4" target="6bQv6QJurrnaL64MEYEU-28">
          <mxGeometry width="50" height="50" relative="1" as="geometry">
            <mxPoint x="800" y="500" as="sourcePoint" />
            <mxPoint x="850" y="450" as="targetPoint" />
          </mxGeometry>
        </mxCell>
        <mxCell id="6bQv6QJurrnaL64MEYEU-69" value="" style="endArrow=none;html=1;rounded=0;entryX=0;entryY=0.5;entryDx=0;entryDy=0;exitX=1;exitY=0.5;exitDx=0;exitDy=0;" edge="1" parent="1" source="6bQv6QJurrnaL64MEYEU-4" target="6bQv6QJurrnaL64MEYEU-29">
          <mxGeometry width="50" height="50" relative="1" as="geometry">
            <mxPoint x="810" y="510" as="sourcePoint" />
            <mxPoint x="860" y="460" as="targetPoint" />
          </mxGeometry>
        </mxCell>
        <mxCell id="6bQv6QJurrnaL64MEYEU-70" value="" style="endArrow=none;html=1;rounded=0;entryX=0;entryY=0.5;entryDx=0;entryDy=0;exitX=1;exitY=0.5;exitDx=0;exitDy=0;" edge="1" parent="1" source="6bQv6QJurrnaL64MEYEU-4" target="6bQv6QJurrnaL64MEYEU-30">
          <mxGeometry width="50" height="50" relative="1" as="geometry">
            <mxPoint x="820" y="520" as="sourcePoint" />
            <mxPoint x="870" y="470" as="targetPoint" />
          </mxGeometry>
        </mxCell>
        <mxCell id="6bQv6QJurrnaL64MEYEU-71" value="" style="endArrow=none;html=1;rounded=0;entryX=0;entryY=0.5;entryDx=0;entryDy=0;exitX=1;exitY=0.5;exitDx=0;exitDy=0;" edge="1" parent="1" source="6bQv6QJurrnaL64MEYEU-4" target="6bQv6QJurrnaL64MEYEU-31">
          <mxGeometry width="50" height="50" relative="1" as="geometry">
            <mxPoint x="830" y="530" as="sourcePoint" />
            <mxPoint x="880" y="480" as="targetPoint" />
          </mxGeometry>
        </mxCell>
        <mxCell id="6bQv6QJurrnaL64MEYEU-72" value="" style="endArrow=none;html=1;rounded=0;entryX=0;entryY=0.5;entryDx=0;entryDy=0;exitX=1;exitY=0.5;exitDx=0;exitDy=0;" edge="1" parent="1" source="6bQv6QJurrnaL64MEYEU-4" target="6bQv6QJurrnaL64MEYEU-32">
          <mxGeometry width="50" height="50" relative="1" as="geometry">
            <mxPoint x="840" y="540" as="sourcePoint" />
            <mxPoint x="890" y="490" as="targetPoint" />
          </mxGeometry>
        </mxCell>
        <mxCell id="6bQv6QJurrnaL64MEYEU-73" value="" style="endArrow=none;html=1;rounded=0;entryX=0;entryY=0.5;entryDx=0;entryDy=0;exitX=1;exitY=0.5;exitDx=0;exitDy=0;" edge="1" parent="1" source="6bQv6QJurrnaL64MEYEU-4" target="6bQv6QJurrnaL64MEYEU-33">
          <mxGeometry width="50" height="50" relative="1" as="geometry">
            <mxPoint x="850" y="550" as="sourcePoint" />
            <mxPoint x="900" y="500" as="targetPoint" />
          </mxGeometry>
        </mxCell>
        <mxCell id="6bQv6QJurrnaL64MEYEU-74" value="" style="endArrow=none;html=1;rounded=0;exitX=0.5;exitY=1;exitDx=0;exitDy=0;entryX=0.5;entryY=0;entryDx=0;entryDy=0;" edge="1" parent="1" source="6bQv6QJurrnaL64MEYEU-3" target="6bQv6QJurrnaL64MEYEU-22">
          <mxGeometry width="50" height="50" relative="1" as="geometry">
            <mxPoint x="870" y="410" as="sourcePoint" />
            <mxPoint x="380" y="510" as="targetPoint" />
          </mxGeometry>
        </mxCell>
        <mxCell id="6bQv6QJurrnaL64MEYEU-75" value="" style="endArrow=none;html=1;rounded=0;exitX=0.5;exitY=1;exitDx=0;exitDy=0;entryX=0.5;entryY=0;entryDx=0;entryDy=0;" edge="1" parent="1" source="6bQv6QJurrnaL64MEYEU-3" target="6bQv6QJurrnaL64MEYEU-24">
          <mxGeometry width="50" height="50" relative="1" as="geometry">
            <mxPoint x="880" y="420" as="sourcePoint" />
            <mxPoint x="390" y="520" as="targetPoint" />
          </mxGeometry>
        </mxCell>
        <mxCell id="6bQv6QJurrnaL64MEYEU-76" value="" style="endArrow=none;html=1;rounded=0;entryX=0.5;entryY=1;entryDx=0;entryDy=0;exitX=0.5;exitY=0;exitDx=0;exitDy=0;" edge="1" parent="1" source="6bQv6QJurrnaL64MEYEU-25" target="6bQv6QJurrnaL64MEYEU-3">
          <mxGeometry width="50" height="50" relative="1" as="geometry">
            <mxPoint x="890" y="430" as="sourcePoint" />
            <mxPoint x="400" y="530" as="targetPoint" />
          </mxGeometry>
        </mxCell>
      </root>
    </mxGraphModel>
  </diagram>
</mxfile>
